<?xml version="1.0" encoding="utf-8"?>
<!-- Generator: Adobe Illustrator 26.3.1, SVG Export Plug-In . SVG Version: 6.00 Build 0)  -->
<svg version="1.1" id="Capa_1" xmlns="http://www.w3.org/2000/svg" xmlns:xlink="http://www.w3.org/1999/xlink" x="0px" y="0px" width="286px" height="108px"
	 viewBox="0 0 286 108" style="enable-background:new 0 0 286 108;" xml:space="preserve">
<style type="text/css">
	.st0{filter:url(#Adobe_OpacityMaskFilter);}
	.st1{fill:#FFFFFF;}
	.st2{mask:url(#mask-555756e4-4cca-40f0-b51f-0e88c37f22b5_00000035532569018730906100000003784436040484768666_);}
	.st3{filter:url(#Adobe_OpacityMaskFilter_00000148631136561396358680000017423749927459794574_);}
	.st4{mask:url(#mask-4f450faa-f9cb-4623-8c6a-77c25fb568c4_00000023965690141386219300000001209969485245816758_);}
	.st5{filter:url(#Adobe_OpacityMaskFilter_00000165200120822025275730000000010397988732541118_);}
	.st6{mask:url(#mask-b1b4f090-2e9b-424d-8069-154580ad258c_00000179629337589949818020000002779688305789066124_);}
	.st7{opacity:0;}
	.st8{fill:none;stroke:#FFFFFF;stroke-width:1.838;stroke-dasharray:11.029;}
	.st9{fill:none;stroke:#000000;stroke-width:1.838;stroke-dasharray:11.029;stroke-dashoffset:11;}
	.st10{fill:none;stroke:#FFFFFF;stroke-width:1.838;stroke-dasharray:5.515;}
	.st11{fill:none;stroke:#000000;stroke-width:1.838;stroke-dasharray:5.515;stroke-dashoffset:5;}
</style>
<defs>
	<filter id="Adobe_OpacityMaskFilter" filterUnits="userSpaceOnUse" x="0" y="0" width="141.4" height="108.5">
		<feColorMatrix  type="matrix" values="1 0 0 0 0  0 1 0 0 0  0 0 1 0 0  0 0 0 1 0"/>
	</filter>
</defs>
<mask maskUnits="userSpaceOnUse" x="0" y="0" width="141.4" height="108.5" id="mask-555756e4-4cca-40f0-b51f-0e88c37f22b5_00000035532569018730906100000003784436040484768666_">
	<rect class="st0" width="141.4" height="108.5"/>
	<g>
		
			<g id="def-1220e480-935e-40d2-9934-1230beaed1f0_00000028286955708149041340000017381509311446645122_" transform="matrix(4.781, 0, 0, 4.781, 49.433, 327.271)">
			<g transform="translate(-2.94, -13.873)">
				<g>
				</g>
				<path class="st1" d="M10.9-44.5h0.9c0.1,0.6,0.4,1.2,0.7,1.7l-0.6,0.6c-0.1,0.1-0.1,0.4,0,0.5l0.7,0.7c0.1,0.1,0.4,0.1,0.5,0
					l0.6-0.6c0.5,0.3,1.1,0.6,1.7,0.7v0.9c0,0.2,0.2,0.4,0.4,0.4c0,0,0,0,0,0h1c0.2,0,0.4-0.2,0.4-0.4v-0.9c0.6-0.1,1.2-0.4,1.7-0.7
					l0.6,0.6c0.1,0.1,0.4,0.1,0.5,0l0.7-0.7c0.1-0.1,0.1-0.4,0-0.5l-0.6-0.6c0.3-0.5,0.6-1.1,0.7-1.7h0.9c0.2,0,0.4-0.2,0.4-0.4v-1
					c0-0.2-0.2-0.4-0.4-0.4h-0.9c-0.1-0.6-0.4-1.2-0.7-1.7l0.6-0.6c0.1-0.1,0.1-0.4,0-0.5L20-49.8c-0.1-0.1-0.4-0.1-0.5,0l-0.6,0.6
					c-0.5-0.3-1.1-0.6-1.7-0.7v-0.9c0-0.2-0.2-0.4-0.4-0.4h-1c-0.2,0-0.4,0.2-0.4,0.4v0.9c-0.6,0.1-1.2,0.3-1.7,0.7l-0.6-0.6
					c-0.1-0.1-0.4-0.1-0.5,0l-0.7,0.7c-0.1,0.1-0.1,0.4,0,0.5l0.6,0.6c-0.3,0.5-0.6,1.1-0.7,1.7h-0.9c-0.2,0-0.4,0.2-0.4,0.4v1
					C10.5-44.7,10.7-44.5,10.9-44.5z M14.6-45.7l1.6-1.9c0-0.1,0.1-0.1,0.2,0c0,0,0,0,0,0l1.6,1.9c0,0,0,0.1,0,0.1c0,0,0,0-0.1,0H17
					v2.2c0,0.1-0.1,0.2-0.2,0.2l0,0h-1.2c-0.1,0-0.2-0.1-0.2-0.2l0,0v-2.2h-0.8C14.6-45.5,14.6-45.6,14.6-45.7
					C14.6-45.7,14.6-45.7,14.6-45.7z M-4.3-32h11l0.3-7.1l2.1,2.8c0.3,0.5,0.9,0.7,1.5,0.7l6.8-0.5c0.5,0,0.8-0.4,0.8-0.9
					c0-0.4-0.4-0.8-0.8-0.8l-6.1-0.5l-2.2-4.2c-0.3-0.5-0.6-0.9-0.9-1.3l0,0c-0.2-0.2-0.4-0.4-0.7-0.6c-0.9-0.6-1.8-1.2-2.7-1.7
					l-1.4,6.9l-0.7-4.6l0.5-0.8l-0.7-0.9l1.9-1.2v-0.8c0.2-0.3,0.3-0.6,0.4-1c0.1,0,0.3-0.2,0.5-0.9c0.3-0.9,0-1.1-0.3-1.1
					c0-0.1,0.1-0.3,0.1-0.4c0.4-2.4-0.8-2.5-0.8-2.5c-0.2-0.3-0.4-0.5-0.7-0.7c-0.5-0.3-1-0.4-1.5-0.3c-0.2,0-0.4,0-0.6,0.1l0,0
					c-0.2,0.1-0.5,0.2-0.7,0.3c-0.2,0.2-0.5,0.3-0.7,0.6c-0.4,0.4-0.6,0.8-0.7,1.3c-0.1,0.4-0.1,0.8,0,1.3l0,0
					c0,0.1,0.1,0.3,0.1,0.4c-0.2,0-0.5,0.1-0.3,1.1c0.2,0.7,0.4,0.9,0.5,0.9c0.1,0.3,0.2,0.7,0.4,1v0.8l1.9,1.2l-0.7,0.9l0.5,0.8
					L1-39.3l-1.4-6.9c-0.9,0.5-1.8,1.1-2.6,1.7c-0.8,0.6-1.4,1.3-1.8,2.2L-5.9-40l-1.2,2.5c-0.2,0.4-0.2,1,0.1,1.4L-4.3-32z
					 M-4.1-37.1l1.6-2.4l0.3,6.2l-2-3.3C-4.2-36.7-4.2-36.9-4.1-37.1L-4.1-37.1z"/>
			</g>
		</g>
	</g>
</mask>
<g class="st2">
	<rect x="0" y="0" width="141.4" height="108.5"/>
</g>
<defs>
	
		<filter id="Adobe_OpacityMaskFilter_00000110458778316658648740000006024557631993198271_" filterUnits="userSpaceOnUse" x="170.5" y="19.3" width="108.9" height="40.1">
		<feColorMatrix  type="matrix" values="1 0 0 0 0  0 1 0 0 0  0 0 1 0 0  0 0 0 1 0"/>
	</filter>
</defs>
<mask maskUnits="userSpaceOnUse" x="170.5" y="19.3" width="108.9" height="40.1" id="mask-4f450faa-f9cb-4623-8c6a-77c25fb568c4_00000023965690141386219300000001209969485245816758_">
	
		<rect x="170.5" y="19.3" style="filter:url(#Adobe_OpacityMaskFilter_00000110458778316658648740000006024557631993198271_);" width="108.9" height="40.1"/>
	<g>
		<path id="def-946e4580-ab01-4180-a3d3-878ac3d84478_00000094581670927045871010000015770106734175047042_" class="st1" d="M181,23
			h-7.1v32.7h4.5V32.6l3.8,23.1h4.9l3.5-23.4v23.4h4.9V23h-7.1l-3.5,23.2L181,23z M208.1,30.5c0-2.3,1-3.2,2.7-3.2
			c1.6,0,2.7,0.9,2.7,3.2v17.6c0,2.3-1,3.2-2.7,3.2c-1.6,0-2.7-0.9-2.7-3.2V30.5z M203,47.8c0,5.2,2.8,8.2,7.8,8.2
			c5,0,7.8-3,7.8-8.2v-17c0-5.2-2.8-8.2-7.8-8.2c-5,0-7.8,3-7.8,8.2V47.8z M226.1,55.7h5.1V23h-5.1V55.7z M243,23h-5.2l5,32.7h7.7
			l5-32.7h-4.7l-3.9,26.7L243,23z M267.3,27.7h8.9V23h-14v32.7h14V51h-8.9v-9.6h7v-4.7h-7V27.7z"/>
	</g>
</mask>
<g class="st4">
	<rect x="170.5" y="19.3" width="108.9" height="40.1"/>
</g>
<defs>
	
		<filter id="Adobe_OpacityMaskFilter_00000091732397956527361760000011816833560643038124_" filterUnits="userSpaceOnUse" x="172.5" y="70.3" width="112" height="17">
		<feColorMatrix  type="matrix" values="1 0 0 0 0  0 1 0 0 0  0 0 1 0 0  0 0 0 1 0"/>
	</filter>
</defs>
<mask maskUnits="userSpaceOnUse" x="172.5" y="70.3" width="112" height="17" id="mask-b1b4f090-2e9b-424d-8069-154580ad258c_00000179629337589949818020000002779688305789066124_">
	
		<rect x="172.5" y="70.3" style="filter:url(#Adobe_OpacityMaskFilter_00000091732397956527361760000011816833560643038124_);" width="112" height="17"/>
	<g>
		<path id="def-770daa63-f266-40d8-9a6d-2dcaf8ca8215_00000147919658999956929210000002436218970986024077_" class="st1" d="
			M183.9,84.1c-0.2,0.3-0.5,0.5-0.9,0.8c-0.4,0.3-0.9,0.5-1.5,0.7c-0.6,0.2-1.4,0.3-2.2,0.3l0,0c-1,0-2-0.2-2.8-0.7
			c-0.8-0.5-1.4-1.2-1.9-2.1c-0.4-0.9-0.7-2-0.7-3.2l0,0v-1.6c0-1.2,0.2-2.3,0.6-3.2c0.4-0.9,1-1.6,1.8-2.1c0.8-0.5,1.7-0.7,2.7-0.7
			l0,0c1,0,1.8,0.2,2.5,0.5c0.7,0.3,1.2,0.8,1.6,1.4c0.4,0.6,0.6,1.3,0.7,2l0,0h-1.1c-0.1-0.9-0.5-1.6-1.1-2.1
			c-0.6-0.5-1.4-0.8-2.6-0.8l0,0c-0.9,0-1.6,0.2-2.2,0.6c-0.6,0.4-1.1,1-1.4,1.7c-0.3,0.7-0.5,1.6-0.5,2.6l0,0v1.6
			c0,1,0.2,1.9,0.5,2.7c0.3,0.8,0.8,1.4,1.5,1.8c0.6,0.4,1.4,0.6,2.2,0.6l0,0c0.6,0,1.2-0.1,1.7-0.2c0.5-0.1,0.9-0.3,1.2-0.4
			c0.3-0.2,0.5-0.4,0.7-0.5l0,0v-3.4h-3.6v-1h4.7V84.1z M188.6,80.6c0-1,0.2-1.8,0.5-2.6c0.4-0.8,0.9-1.3,1.5-1.8
			c0.7-0.4,1.4-0.6,2.3-0.6l0,0c0.9,0,1.6,0.2,2.3,0.6c0.7,0.4,1.2,1,1.6,1.8c0.4,0.8,0.5,1.6,0.5,2.6l0,0v0.3c0,1-0.2,1.8-0.5,2.6
			c-0.4,0.8-0.9,1.3-1.5,1.8c-0.7,0.4-1.4,0.6-2.3,0.6l0,0c-0.9,0-1.6-0.2-2.3-0.6c-0.7-0.4-1.2-1-1.6-1.8c-0.4-0.8-0.5-1.6-0.5-2.6
			l0,0V80.6z M189.7,80.9c0,0.7,0.1,1.4,0.4,2c0.3,0.6,0.6,1.1,1.1,1.5c0.5,0.4,1.1,0.5,1.8,0.5l0,0c0.7,0,1.3-0.2,1.8-0.5
			c0.5-0.4,0.9-0.9,1.1-1.5c0.3-0.6,0.4-1.3,0.4-2l0,0v-0.3c0-0.7-0.1-1.4-0.4-2c-0.3-0.6-0.6-1.1-1.1-1.5c-0.5-0.4-1.1-0.6-1.8-0.6
			l0,0c-0.7,0-1.3,0.2-1.8,0.6c-0.5,0.4-0.9,0.9-1.1,1.5c-0.3,0.6-0.4,1.3-0.4,2l0,0V80.9z M201.5,80.6c0-1,0.2-1.8,0.5-2.6
			c0.4-0.8,0.9-1.3,1.5-1.8c0.7-0.4,1.4-0.6,2.3-0.6l0,0c0.9,0,1.6,0.2,2.3,0.6c0.7,0.4,1.2,1,1.5,1.8c0.4,0.8,0.5,1.6,0.5,2.6l0,0
			v0.3c0,1-0.2,1.8-0.5,2.6c-0.4,0.8-0.9,1.3-1.5,1.8c-0.7,0.4-1.4,0.6-2.3,0.6l0,0c-0.9,0-1.6-0.2-2.3-0.6c-0.7-0.4-1.2-1-1.5-1.8
			c-0.4-0.8-0.5-1.6-0.5-2.6l0,0V80.6z M202.6,80.9c0,0.7,0.1,1.4,0.4,2c0.3,0.6,0.6,1.1,1.1,1.5c0.5,0.4,1.1,0.5,1.8,0.5l0,0
			c0.7,0,1.3-0.2,1.8-0.5c0.5-0.4,0.9-0.9,1.1-1.5c0.3-0.6,0.4-1.3,0.4-2l0,0v-0.3c0-0.7-0.1-1.4-0.4-2c-0.3-0.6-0.6-1.1-1.1-1.5
			c-0.5-0.4-1.1-0.6-1.8-0.6l0,0c-0.7,0-1.3,0.2-1.8,0.6c-0.5,0.4-0.9,0.9-1.1,1.5c-0.3,0.6-0.4,1.3-0.4,2l0,0V80.9z M221.4,71.7
			h1.1v14h-1l-0.1-1.3c-0.3,0.5-0.8,0.9-1.3,1.1c-0.5,0.3-1.1,0.4-1.8,0.4l0,0c-0.8,0-1.4-0.2-2-0.6c-0.6-0.4-1-1-1.3-1.8
			c-0.3-0.8-0.5-1.6-0.5-2.6l0,0v-0.2c0-1,0.2-1.9,0.5-2.7c0.3-0.8,0.7-1.3,1.3-1.8c0.6-0.4,1.2-0.6,2-0.6l0,0
			c0.7,0,1.3,0.1,1.8,0.4c0.5,0.3,0.9,0.7,1.3,1.2l0,0V71.7z M218.6,85c0.7,0,1.3-0.2,1.8-0.5c0.5-0.3,0.8-0.8,1.1-1.3l0,0v-4.7
			c-0.2-0.6-0.6-1-1-1.4c-0.5-0.4-1.1-0.5-1.8-0.5l0,0c-0.6,0-1.2,0.2-1.6,0.5c-0.4,0.4-0.8,0.8-1,1.4c-0.2,0.6-0.3,1.3-0.3,2.1l0,0
			v0.2c0,0.8,0.1,1.5,0.3,2.1c0.2,0.6,0.5,1.1,1,1.4C217.4,84.8,217.9,85,218.6,85L218.6,85z M239.1,75.7c1,0,1.8,0.3,2.3,0.9
			c0.5,0.6,0.8,1.5,0.8,2.8l0,0v6.4h-1.1v-6.4c0-1-0.2-1.7-0.6-2.1c-0.4-0.4-1-0.6-1.7-0.6l0,0c-0.7,0-1.3,0.2-1.8,0.7
			c-0.5,0.4-0.9,1-1.1,1.7l0,0v6.8h-1.1v-9.9h1l0,1.7c0.4-0.6,0.8-1,1.4-1.4C237.8,75.8,238.4,75.7,239.1,75.7L239.1,75.7z
			 M255,80.9h-7v0.2c0,0.7,0.1,1.4,0.4,2c0.3,0.6,0.7,1.1,1.2,1.4c0.5,0.3,1.1,0.5,1.8,0.5l0,0c0.6,0,1.1-0.1,1.6-0.3
			c0.4-0.2,0.9-0.6,1.2-1l0,0l0.7,0.5c-0.4,0.5-0.8,1-1.4,1.3c-0.6,0.3-1.3,0.5-2.1,0.5l0,0c-0.8,0-1.6-0.2-2.3-0.6
			c-0.7-0.4-1.2-1-1.6-1.7c-0.4-0.7-0.6-1.6-0.6-2.5l0,0v-0.4c0-1,0.2-1.9,0.6-2.6c0.4-0.8,0.9-1.3,1.6-1.8c0.6-0.4,1.3-0.6,2.1-0.6
			l0,0c0.8,0,1.5,0.2,2.1,0.6c0.6,0.4,1,0.9,1.3,1.6c0.3,0.7,0.5,1.5,0.5,2.3l0,0V80.9z M251.1,76.6c-0.5,0-1,0.1-1.5,0.4
			c-0.4,0.3-0.8,0.7-1.1,1.2c-0.3,0.5-0.5,1.1-0.5,1.7l0,0h5.9v-0.1c0-0.6-0.1-1.1-0.3-1.6c-0.2-0.5-0.5-0.9-1-1.2
			C252.2,76.8,251.7,76.6,251.1,76.6L251.1,76.6z M270.5,75.9h1.1l-2.9,9.9h-0.8h-0.1l-2.5-7.8l-0.1-0.5l-0.1,0.5l-2.5,7.8h-0.8
			h-0.2l-2.9-9.9h1.1l2.1,7.6l0.2,0.8l0.2-0.9l2.4-7.5h0.8h0.2l2.3,7.5l0.3,1l0.2-0.9L270.5,75.9z M279.4,81.1
			c-0.8-0.2-1.4-0.4-1.9-0.6c-0.5-0.2-0.9-0.5-1.1-0.9c-0.3-0.4-0.4-0.8-0.4-1.3l0,0c0-0.5,0.1-0.9,0.4-1.3c0.3-0.4,0.7-0.7,1.2-1
			c0.5-0.2,1.1-0.4,1.8-0.4l0,0c0.7,0,1.4,0.1,1.9,0.4c0.6,0.3,1,0.6,1.3,1c0.3,0.4,0.4,1,0.4,1.5l0,0h-1.1c0-0.3-0.1-0.7-0.3-1
			c-0.2-0.3-0.5-0.6-0.9-0.7c-0.4-0.2-0.8-0.3-1.4-0.3l0,0c-0.5,0-1,0.1-1.3,0.2c-0.4,0.2-0.6,0.4-0.8,0.6c-0.2,0.3-0.3,0.5-0.3,0.8
			l0,0c0,0.3,0.1,0.6,0.2,0.8c0.1,0.2,0.4,0.4,0.8,0.6c0.4,0.2,0.9,0.4,1.7,0.5l0,0c0.8,0.2,1.5,0.4,2,0.7c0.5,0.3,0.9,0.6,1.1,0.9
			c0.2,0.4,0.4,0.8,0.4,1.3l0,0c0,0.5-0.2,1-0.5,1.4c-0.3,0.4-0.7,0.7-1.3,1c-0.6,0.2-1.2,0.3-1.9,0.3l0,0c-0.8,0-1.5-0.1-2.1-0.4
			c-0.6-0.3-1-0.6-1.3-1.1c-0.3-0.5-0.5-0.9-0.5-1.5l0,0h1.1c0,0.7,0.3,1.2,0.9,1.5c0.5,0.3,1.2,0.5,1.9,0.5l0,0
			c0.5,0,1-0.1,1.4-0.2c0.4-0.2,0.7-0.4,0.9-0.6c0.2-0.3,0.3-0.6,0.3-0.9l0,0c0-0.5-0.2-0.9-0.6-1.2
			C281.1,81.6,280.4,81.3,279.4,81.1L279.4,81.1z"/>
	</g>
</mask>
<g class="st6">
	<rect x="172.5" y="70.3" width="112" height="17"/>
</g>
<g class="st7">
	<rect x="-311.5" y="-317.3" class="st8" width="1524.1" height="980"/>
	<rect x="-311.5" y="-317.3" class="st9" width="1524.1" height="980"/>
</g>
<g class="st7">
	<polygon class="st10" points="-49.4,-327.3 -49.4,-327.3 -49.4,-327.3 	"/>
	<polygon class="st11" points="-49.4,-327.3 -49.4,-327.3 -49.4,-327.3 	"/>
</g>
</svg>
